<?xml version="1.0" encoding="UTF-8"?>
<svg data-name="圖層 1" viewBox="0 0 19.21 19.2" xmlns="http://www.w3.org/2000/svg">
<defs>
<style>.cls-1 {
        fill: #999;
        stroke-width: 0;
      }</style>
</defs>
<path class="cls-1" d="M9.94,19.19c-1.41,0-2.37.03-3.32,0-.86-.03-1.72-.03-2.56-.24-1.08-.28-2.02-.8-2.74-1.67-.71-.86-1.06-1.85-1.19-2.94-.09-.82-.12-1.64-.12-2.47,0-1.62-.01-3.24,0-4.87,0-.81.03-1.62.15-2.42.23-1.48.91-2.69,2.15-3.55.75-.52,1.6-.8,2.5-.89C6.76-.07,8.72.03,10.68,0c.83,0,1.67,0,2.5.03.89.04,1.77.11,2.62.43.93.35,1.69.91,2.28,1.71.63.86.94,1.83,1.02,2.88.19,2.49.09,4.99.09,7.48,0,.76-.03,1.53-.18,2.29-.22,1.11-.68,2.08-1.51,2.87-.68.64-1.47,1.03-2.37,1.25-.54.13-1.1.17-1.66.2-1.32.08-2.65.03-3.52.05ZM17.43,9.6c0-1.18.02-2.36-.03-3.54-.03-.59-.06-1.18-.23-1.75-.18-.59-.47-1.11-.93-1.54-.64-.59-1.43-.83-2.27-.91-.9-.09-1.81-.09-2.71-.09-1.54,0-3.08-.02-4.63.02-.62.02-1.23.03-1.84.13-.88.15-1.63.52-2.18,1.23-.49.62-.67,1.35-.75,2.12-.07.74-.08,1.49-.08,2.23-.02,1.87-.03,3.73.03,5.6.02.54.05,1.08.18,1.61.18.75.55,1.38,1.15,1.86.56.45,1.24.66,1.94.75.73.09,1.46.09,2.2.1,1.91,0,3.82.03,5.73-.03.49-.02.98-.04,1.46-.13.76-.14,1.44-.45,1.97-1.03.46-.5.71-1.11.83-1.76.15-.79.13-1.59.16-2.38.02-.83,0-1.66,0-2.49Z"/>
<path class="cls-1" d="M9.58,14.54c-2.68.02-4.94-2.2-4.92-4.97.02-2.72,2.22-4.9,4.97-4.9,2.72,0,4.91,2.21,4.92,4.93.01,2.73-2.22,4.98-4.96,4.94ZM9.6,12.77c1.75,0,3.17-1.42,3.16-3.17,0-1.76-1.39-3.15-3.17-3.17-1.75-.01-3.18,1.44-3.17,3.19.02,1.76,1.41,3.13,3.17,3.15Z"/>
<path class="cls-1" d="M15.88,4.49c0,.65-.52,1.17-1.16,1.17-.64,0-1.18-.53-1.18-1.16,0-.66.52-1.18,1.17-1.18.67,0,1.17.5,1.17,1.17Z"/>
</svg>
