<?xml version="1.0" encoding="UTF-8"?>
<svg data-name="圖層 1" viewBox="0 0 20.99 20" xmlns="http://www.w3.org/2000/svg">
<defs>
<style>.cls-1 {
        fill: #999;
        stroke-width: 0;
      }</style>
</defs>
<path class="cls-1" d="m10.5 0c1.65 0 3.24 0.3 4.77 0.93 1.38 0.57 2.6 1.38 3.62 2.47 0.91 0.98 1.56 2.1 1.89 3.4 0.19 0.76 0.25 1.53 0.19 2.31-0.1 1.19-0.51 2.27-1.16 3.27-0.52 0.8-1.15 1.51-1.84 2.18-0.93 0.9-1.94 1.7-2.98 2.46-1.18 0.86-2.38 1.66-3.65 2.39-0.33 0.19-0.66 0.38-1.02 0.51-0.13 0.05-0.27 0.08-0.42 0.08-0.21 0-0.34-0.12-0.35-0.33-0.01-0.17 0.03-0.34 0.05-0.5 0.06-0.4 0.16-0.8 0.17-1.21 0-0.12 0-0.24-0.03-0.35-0.03-0.18-0.12-0.31-0.27-0.41-0.24-0.15-0.5-0.24-0.78-0.28-2.13-0.31-4.07-1.07-5.74-2.46-0.98-0.81-1.76-1.79-2.3-2.96-0.33-0.71-0.53-1.45-0.62-2.22-0.13-1.25 0.06-2.46 0.57-3.62 0.44-0.99 1.06-1.85 1.84-2.61 0.97-0.94 2.1-1.64 3.34-2.15 0.77-0.31 1.56-0.54 2.37-0.69 0.78-0.14 1.56-0.21 2.35-0.21zm-0.07 8.31s0.05 0.06 0.07 0.09c0.67 0.9 1.33 1.8 2 2.7 0.07 0.09 0.15 0.14 0.27 0.14h0.64c0.16 0 0.24-0.08 0.24-0.24v-4.5c0-0.17-0.08-0.24-0.24-0.24h-0.64c-0.19 0-0.26 0.07-0.26 0.26v2.56 0.1s-0.04-0.06-0.06-0.08c-0.67-0.91-1.35-1.82-2.02-2.73-0.06-0.08-0.13-0.12-0.23-0.12h-0.65c-0.17 0-0.24 0.08-0.24 0.25v4.49c0 0.17 0.08 0.25 0.25 0.25h0.64c0.19 0 0.26-0.07 0.26-0.26v-2.56-0.1zm3.92 0.43v2.24c0 0.17 0.08 0.25 0.24 0.25h2.87c0.16 0 0.23-0.08 0.24-0.24v-0.65c0-0.2-0.07-0.26-0.26-0.26h-1.87c-0.05 0-0.08 0-0.07-0.07v-0.65c0-0.05 0.01-0.06 0.06-0.06h0.61 1.3c0.16 0 0.24-0.08 0.24-0.24v-0.68c0-0.07-0.01-0.12-0.06-0.17s-0.12-0.06-0.19-0.06h-1.87c-0.06 0-0.08 0-0.08-0.08v-0.62c0-0.06 0.02-0.07 0.08-0.07h1.89c0.16 0 0.23-0.08 0.23-0.24v-0.65c0-0.19-0.07-0.26-0.26-0.26h-2.81c-0.21 0-0.27 0.07-0.27 0.27v2.22zm-10.91 0v2.24c0 0.18 0.07 0.25 0.25 0.25h2.85c0.17 0 0.25-0.08 0.25-0.25v-0.62c0-0.2-0.07-0.27-0.26-0.27h-1.85c-0.1 0-0.09 0.01-0.09-0.09v-3.49c0-0.18-0.07-0.26-0.25-0.26h-0.63c-0.19 0-0.26 0.07-0.26 0.26v2.23zm3.98 0v2.25c0 0.16 0.08 0.24 0.24 0.24h0.67c0.16 0 0.24-0.08 0.24-0.24v-4.5c0-0.17-0.08-0.24-0.24-0.25h-0.64c-0.19 0-0.26 0.07-0.26 0.26v2.23z"/>
</svg>
