<?xml version="1.0" encoding="UTF-8"?>
<svg data-name="圖層 1" viewBox="0 0 80.57 31" xmlns="http://www.w3.org/2000/svg">
<defs>
<style>.cls-1{fill:#4d3125;}</style>
</defs>
<path class="cls-1" transform="translate(-.72 -.5)" d="M4.39,30.89H.72V.5H4.39Z"/>
<path class="cls-1" transform="translate(-.72 -.5)" d="M28.61,30.89H25V28.57l-1.31.93a9.82,9.82,0,0,1-1.61.94,11.79,11.79,0,0,1-2.11.76,11.61,11.61,0,0,1-2.8.3,7,7,0,0,1-5-2,6.6,6.6,0,0,1-2-5,6.89,6.89,0,0,1,1.07-4,7.09,7.09,0,0,1,3-2.41A16.38,16.38,0,0,1,19,17q2.79-.32,6-.47v-.57a4.41,4.41,0,0,0-.43-2.07,3.32,3.32,0,0,0-1.26-1.29,5.2,5.2,0,0,0-1.88-.6,15.3,15.3,0,0,0-2.28-.16,15.83,15.83,0,0,0-3.23.38,24.89,24.89,0,0,0-3.67,1.11H12V9.54c.71-.19,1.75-.41,3.1-.64a24,24,0,0,1,4-.35,18.93,18.93,0,0,1,4,.38,7.82,7.82,0,0,1,3,1.3A5.75,5.75,0,0,1,28,12.55a8.58,8.58,0,0,1,.65,3.54ZM25,25.52V19.45c-1.12.06-2.43.16-3.95.29a20,20,0,0,0-3.6.57,5.9,5.9,0,0,0-2.56,1.39,3.47,3.47,0,0,0-1,2.61A3.48,3.48,0,0,0,15,27.13a5.33,5.33,0,0,0,3.46.95A8.26,8.26,0,0,0,22,27.33,16.17,16.17,0,0,0,25,25.52Z"/>
<path class="cls-1" transform="translate(-.72 -.5)" d="M47,30.7a21.5,21.5,0,0,1-2.26.45,16.48,16.48,0,0,1-2.18.17,6.79,6.79,0,0,1-5.08-1.79c-1.16-1.2-1.73-3.12-1.73-5.77V12.16H33.28V9.08h2.48V2.81h3.67V9.08H47v3.08H39.43V22.1c0,1.15,0,2,.08,2.69a4.42,4.42,0,0,0,.54,1.81,2.65,2.65,0,0,0,1.18,1.14,5.62,5.62,0,0,0,2.3.36,7.38,7.38,0,0,0,1.87-.26c.65-.18,1.12-.33,1.41-.44H47Z"/>
<path class="cls-1" transform="translate(-.72 -.5)" d="M55.39,5.42H51.24V1.62h4.15Zm-.24,25.47H51.48V9.08h3.67Z"/>
<path class="cls-1" transform="translate(-.72 -.5)" d="M81.28,9.08,72.46,30.89h-3.7L60,9.08h4l6.76,17.36,6.7-17.36Z"/>
</svg>
